<?xml version="1.0" encoding="UTF-8"?> <svg xmlns="http://www.w3.org/2000/svg" xmlns:xlink="http://www.w3.org/1999/xlink" version="1.1" id="Layer_1" x="0px" y="0px" viewBox="0 0 360 360" style="enable-background:new 0 0 360 360;" xml:space="preserve"> <style type="text/css"> .st0{fill:#8a2be2;} </style> <g> <path class="st0" d="M145.7,94h-28.4v-6l10.2-10.3c3-3.1,5-5.2,5.9-6.4s1.6-2.3,2-3.3s0.6-2.1,0.6-3.2c0-1.6-0.4-2.8-1.3-3.6 s-2.1-1.2-3.6-1.2c-1.6,0-3.1,0.4-4.6,1.1s-3,1.8-4.6,3.1l-4.7-5.5c2-1.7,3.7-2.9,5-3.6s2.8-1.2,4.3-1.6s3.3-0.6,5.2-0.6 c2.5,0,4.8,0.5,6.7,1.4s3.5,2.2,4.5,3.9s1.6,3.6,1.6,5.7c0,1.9-0.3,3.6-1,5.3s-1.7,3.3-3.1,5.1s-3.8,4.2-7.3,7.4l-5.2,4.9v0.4h17.7 V94z"></path> <path class="st0" d="M178,73.7c0,7.1-1.2,12.4-3.5,15.8s-5.9,5.1-10.8,5.1c-4.7,0-8.2-1.8-10.6-5.3s-3.6-8.7-3.6-15.6 c0-7.2,1.2-12.5,3.5-15.9s5.9-5.1,10.7-5.1c4.7,0,8.2,1.8,10.6,5.3S178,66.8,178,73.7z M158.1,73.7c0,5,0.4,8.6,1.3,10.7 s2.3,3.2,4.4,3.2c2,0,3.5-1.1,4.3-3.3s1.3-5.8,1.3-10.7c0-5-0.4-8.6-1.3-10.8s-2.3-3.3-4.3-3.3c-2,0-3.5,1.1-4.3,3.3 S158.1,68.7,158.1,73.7z"></path> <path class="st0" d="M210.7,94h-28.4v-6l10.2-10.3c3-3.1,5-5.2,5.9-6.4s1.6-2.3,2-3.3s0.6-2.1,0.6-3.2c0-1.6-0.4-2.8-1.3-3.6 s-2.1-1.2-3.6-1.2c-1.6,0-3.1,0.4-4.6,1.1s-3,1.8-4.6,3.1l-4.7-5.5c2-1.7,3.7-2.9,5-3.6s2.8-1.2,4.3-1.6s3.3-0.6,5.2-0.6 c2.5,0,4.8,0.5,6.7,1.4s3.5,2.2,4.5,3.9s1.6,3.6,1.6,5.7c0,1.9-0.3,3.6-1,5.3s-1.7,3.3-3.1,5.1s-3.8,4.2-7.3,7.4l-5.2,4.9v0.4h17.7 V94z"></path> <path class="st0" d="M241.7,62.4c0,2.5-0.8,4.7-2.3,6.5s-3.7,3-6.5,3.7v0.2c3.3,0.4,5.8,1.4,7.5,3s2.5,3.7,2.5,6.4 c0,3.9-1.4,7-4.3,9.1s-6.9,3.3-12.2,3.3c-4.4,0-8.3-0.7-11.7-2.2v-7.3c1.6,0.8,3.3,1.4,5.2,1.9s3.8,0.8,5.6,0.8 c2.8,0,4.9-0.5,6.3-1.4s2-2.5,2-4.6c0-1.9-0.8-3.3-2.3-4.1s-4-1.2-7.5-1.2H221v-6.6h3.1c3.2,0,5.5-0.4,6.9-1.2s2.2-2.2,2.2-4.2 c0-3.1-1.9-4.6-5.8-4.6c-1.3,0-2.7,0.2-4.1,0.7s-2.9,1.2-4.6,2.3l-4-5.9c3.7-2.7,8.1-4,13.3-4c4.2,0,7.5,0.9,10,2.6 S241.7,59.4,241.7,62.4z"></path> </g> <g> <path class="st0" d="M108,132.6H66.1v-21.2c0-8.1-0.4-13.2-1.3-15.2c-0.9-2-2.9-3-5.9-3c-3.5,0-5.6,1.2-6.6,3.7 c-0.9,2.5-1.4,7.8-1.4,15.9v74.9c0,7.8,0.5,12.9,1.4,15.3c0.9,2.4,3,3.6,6.3,3.6c3.1,0,5.2-1.2,6.1-3.6s1.4-8,1.4-16.9v-13.5H108 v6.3c0,16.7-1.2,21.7-3.5,28.7c-2.4,7-7.6,13.1-15.6,18.3c-8.1,5.2-18,7.9-29.8,7.9c-12.3,0-22.4-2.2-30.4-6.7 c-8-4.4-13.2-10.6-15.8-18.5c-2.6-7.9-3.9-19.7-3.9-35.5V126c0-11.6,0.4-20.3,1.2-26.1c0.8-5.8,3.2-11.4,7.1-16.8 c3.9-5.4,9.4-9.6,16.4-12.7c7-3.1,15-4.6,24.1-4.6c12.3,0,22.5,2.4,30.6,7.2c8,4.8,13.3,10.7,15.8,17.8c2.5,7.1,3.8,18.2,3.8,33.2 V132.6z"></path> <path class="st0" d="M247.3,108.2l-15.6,123.7h-42.4c-2.3-15.1-5-35-8.1-59.8c-1.1,10.9-2.5,21.8-4.4,32.9l-4.3,26.8h-42.5 l-16.5-123.7h33.6c0.3,3.2,3.1,26.8,8.5,70.8c0.4-4.5,3.4-28.1,8.8-70.8h32.3l7.9,70.8c1.3-20.7,4.2-44.3,9-70.8H247.3z"></path> <path class="st0" d="M351,132.6h-41.9v-21.2c0-8.1-0.4-13.2-1.3-15.2c-0.9-2-2.9-3-5.9-3c-3.4,0-5.6,1.2-6.6,3.7 c-0.9,2.5-1.4,7.8-1.4,15.9v74.9c0,7.8,0.5,12.9,1.4,15.3s3,3.6,6.3,3.6c3.1,0,5.2-1.2,6.1-3.6c1-2.4,1.4-8,1.4-16.9v-13.5H351v6.3 c0,16.7-1.2,21.7-3.5,28.7c-2.4,7-7.6,13.1-15.6,18.3c-8.1,5.2-18,7.9-29.8,7.9c-12.3,0-22.4-2.2-30.4-6.7s-13.2-10.6-15.8-18.5 c-2.6-7.9-3.9-19.7-3.9-35.5V126c0-11.6,0.4-20.3,1.2-26.1c0.8-5.8,3.2-11.4,7.1-16.8c3.9-5.4,9.4-9.6,16.4-12.7 c7-3.1,15-4.6,24.1-4.6c12.3,0,22.5,2.4,30.6,7.2c8,4.8,13.3,10.7,15.8,17.8c2.5,7.1,3.8,18.2,3.8,33.2V132.6z"></path> </g> <g> <path class="st0" d="M99.5,284.6c0,7.3-1.8,12.9-5.4,16.8c-3.6,3.9-8.8,5.9-15.6,5.9s-11.9-2-15.6-5.9c-3.6-3.9-5.4-9.5-5.4-16.9 c0-7.3,1.8-12.9,5.4-16.8c3.6-3.9,8.8-5.8,15.6-5.8c6.8,0,12,2,15.5,5.8C97.7,271.7,99.5,277.3,99.5,284.6z M67.4,284.6 c0,4.9,0.9,8.6,2.8,11.1c1.9,2.5,4.7,3.7,8.4,3.7c7.5,0,11.2-5,11.2-14.9c0-9.9-3.7-14.9-11.1-14.9c-3.7,0-6.5,1.3-8.4,3.8 C68.3,276,67.4,279.7,67.4,284.6z"></path> <path class="st0" d="M126.8,272.4c1.2,0,2.3,0.1,3.1,0.3l-0.7,8.6c-0.7-0.2-1.6-0.3-2.7-0.3c-2.9,0-5.2,0.8-6.9,2.3 c-1.6,1.5-2.5,3.6-2.5,6.3v17.2H108V273h7l1.4,5.7h0.5c1-1.9,2.5-3.4,4.2-4.6C122.7,272.9,124.7,272.4,126.8,272.4z"></path> <path class="st0" d="M145.2,306.7H136v-46.9h9.2V306.7z"></path> <path class="st0" d="M176.2,306.7l-1.8-4.6h-0.2c-1.5,2-3.1,3.3-4.8,4.1c-1.6,0.8-3.8,1.1-6.4,1.1c-3.2,0-5.8-0.9-7.6-2.8 c-1.9-1.8-2.8-4.5-2.8-7.9c0-3.6,1.3-6.2,3.8-7.9c2.5-1.7,6.3-2.6,11.3-2.8l5.8-0.2v-1.5c0-3.4-1.7-5.1-5.2-5.1 c-2.7,0-5.9,0.8-9.5,2.4l-3-6.2c3.9-2,8.2-3,12.9-3c4.5,0,8,1,10.4,3s3.6,5,3.6,9v22.5H176.2z M173.5,291.1l-3.6,0.1 c-2.7,0.1-4.7,0.6-6,1.4c-1.3,0.9-2,2.2-2,4c0,2.6,1.5,3.9,4.5,3.9c2.1,0,3.8-0.6,5.1-1.8c1.3-1.2,1.9-2.9,1.9-4.9V291.1z"></path> <path class="st0" d="M223.3,306.7h-9.2V287c0-2.4-0.4-4.3-1.3-5.5c-0.9-1.2-2.2-1.8-4.1-1.8c-2.6,0-4.4,0.9-5.6,2.6 c-1.1,1.7-1.7,4.6-1.7,8.5v15.9h-9.2V273h7l1.2,4.3h0.5c1-1.6,2.4-2.9,4.2-3.7c1.8-0.8,3.8-1.3,6.1-1.3c3.9,0,6.9,1.1,8.9,3.2 c2,2.1,3,5.2,3,9.2V306.7z"></path> <path class="st0" d="M243.4,307.3c-4,0-7.1-1.5-9.3-4.6c-2.3-3.1-3.4-7.3-3.4-12.8c0-5.5,1.2-9.8,3.5-12.9c2.3-3.1,5.5-4.6,9.5-4.6 c4.2,0,7.5,1.6,9.7,4.9h0.3c-0.5-2.5-0.7-4.8-0.7-6.7v-10.8h9.2v46.9h-7.1l-1.8-4.4h-0.4C250.9,305.6,247.7,307.3,243.4,307.3z M246.6,300c2.4,0,4.1-0.7,5.2-2.1c1.1-1.4,1.7-3.7,1.8-7v-1c0-3.6-0.6-6.2-1.7-7.8c-1.1-1.6-2.9-2.4-5.4-2.4 c-2.1,0-3.6,0.9-4.8,2.6c-1.1,1.7-1.7,4.3-1.7,7.6c0,3.3,0.6,5.8,1.7,7.5C242.8,299.1,244.5,300,246.6,300z"></path> <path class="st0" d="M302.4,289.8c0,5.5-1.4,9.8-4.3,12.9c-2.9,3.1-6.9,4.6-12.1,4.6c-3.2,0-6.1-0.7-8.6-2.1 c-2.5-1.4-4.4-3.5-5.7-6.1c-1.3-2.7-2-5.7-2-9.3c0-5.5,1.4-9.8,4.3-12.8c2.9-3.1,6.9-4.6,12.1-4.6c3.2,0,6.1,0.7,8.6,2.1 c2.5,1.4,4.4,3.4,5.7,6.1C301.8,283.2,302.4,286.2,302.4,289.8z M279.1,289.8c0,3.3,0.5,5.9,1.6,7.6c1.1,1.7,2.9,2.6,5.4,2.6 c2.5,0,4.2-0.8,5.3-2.5c1.1-1.7,1.6-4.2,1.6-7.6c0-3.3-0.5-5.8-1.6-7.5c-1.1-1.7-2.9-2.5-5.3-2.5c-2.5,0-4.2,0.8-5.3,2.5 C279.7,283.9,279.1,286.4,279.1,289.8z"></path> </g> </svg> 